<svg width="110" height="90" viewBox="0 0 110 90" fill="none" xmlns="http://www.w3.org/2000/svg">
<path fill-rule="evenodd" clip-rule="evenodd" d="M22.8019 31.7537C15.9922 41.2246 16.6668 50.6911 20.6975 60.7209C24.7282 70.7507 33.1509 77.7882 45.6545 79.5316C60.916 81.6594 60.9198 71.5352 67.2453 66.6402C73.5707 61.7453 79.9794 59.7783 87.0644 53.7741C94.1495 47.7698 95.7692 25.9201 77.8852 27.5806C60.0012 29.2412 62.7692 41.7358 59.1594 34.872C55.5493 28.0084 47.365 25.0522 47.365 25.0522C47.365 25.0522 30.881 20.5172 22.8019 31.7537Z" fill="#FF7800"/>
<path fill-rule="evenodd" clip-rule="evenodd" d="M20.6974 60.7208C20.6974 60.7208 26.8757 39.0117 49.1148 28.0781L56.1909 57.9362C56.1909 57.9362 39.552 56.9575 35.5114 76.5509C35.5114 76.5509 30.5006 74.268 26.6782 70.1987C22.8559 66.1294 20.6974 60.7208 20.6974 60.7208Z" fill="#CDB6FE"/>
<path fill-rule="evenodd" clip-rule="evenodd" d="M64.2708 43.8982C63.2459 43.8982 62.2831 43.2664 61.9113 42.2477C61.4358 40.9453 62.1042 39.5038 63.406 39.0273C63.7394 38.9053 64.8972 38.4986 65.7885 38.3955C67.1667 38.2325 68.4123 39.224 68.5717 40.602C68.7312 41.9802 67.7437 43.2266 66.366 43.386C66.1696 43.4103 65.5806 43.5817 65.1304 43.7457C64.8467 43.8491 64.5565 43.8982 64.2708 43.8982Z" fill="#CDB6FE"/>
<path fill-rule="evenodd" clip-rule="evenodd" d="M63.428 49.0261C62.4039 49.0261 61.4422 48.3948 61.0696 47.3771C60.593 46.0745 61.2624 44.6313 62.5646 44.1543C62.8979 44.0323 64.0552 43.6262 64.9462 43.5225C66.3266 43.3672 67.5706 44.35 67.7302 45.7279C67.8903 47.1061 66.903 48.3528 65.5256 48.513C65.3109 48.5395 64.6851 48.7281 64.2909 48.8727C64.0061 48.9767 63.7145 49.0261 63.428 49.0261Z" fill="#CDB6FE"/>
<path fill-rule="evenodd" clip-rule="evenodd" d="M60.967 54.3302C59.9423 54.3302 58.9799 53.6987 58.6078 52.6802C58.132 51.3781 58.8001 49.9366 60.1017 49.4595C60.4353 49.3373 61.5928 48.9303 62.4847 48.8272C63.8632 48.6664 65.1085 49.6555 65.2678 51.0337C65.4274 52.4122 64.4399 53.6586 63.0625 53.8177C62.8696 53.8417 62.2689 54.0167 61.8272 54.1777C61.5435 54.2811 61.2526 54.3302 60.967 54.3302Z" fill="#CDB6FE"/>
<path fill-rule="evenodd" clip-rule="evenodd" d="M56.2146 61.5721L41.768 56.8043C39.977 56.2134 39.0041 54.2817 39.5951 52.49L51.8543 15.3135C52.4452 13.5218 54.3761 12.5486 56.1671 13.1397L70.6137 17.9073C72.4047 18.4984 73.3778 20.4301 72.7869 22.2218L60.5274 59.3981C59.9368 61.19 58.0055 62.1632 56.2146 61.5721Z" fill="#003CE5"/>
<path fill-rule="evenodd" clip-rule="evenodd" d="M70.2702 18.5827L71.8926 18.1592L72.6775 20.1168L71.6424 20.8136C71.6424 20.8136 70.7277 19.8412 70.7277 19.7555C70.7277 19.6695 70.2702 18.5827 70.2702 18.5827Z" fill="#003CE5"/>
<path fill-rule="evenodd" clip-rule="evenodd" d="M38.9704 52.7825L40.9289 52.3496L41.2339 53.9606" fill="#003CE5"/>
<path fill-rule="evenodd" clip-rule="evenodd" d="M56.4952 59.3686C56.1763 59.3686 55.8591 59.3176 55.553 59.216L41.1064 54.4488C39.5325 53.9291 38.6746 52.2256 39.1937 50.6511L51.4532 13.4746C51.8605 12.2391 53.0074 11.4092 54.307 11.4092C54.626 11.4092 54.943 11.4602 55.2491 11.5612L69.6956 16.329C71.2695 16.8484 72.1274 18.5519 71.6083 20.1264L59.3491 57.3029C58.9415 58.5384 57.7946 59.3686 56.4952 59.3686Z" fill="#F4F9FF"/>
<path fill-rule="evenodd" clip-rule="evenodd" d="M54.307 10.9995C52.8734 10.9995 51.5382 11.91 51.0644 13.3466L38.8052 50.5226C38.2143 52.3145 39.1874 54.2462 40.9784 54.8374L55.4249 59.6049C55.7799 59.722 56.1405 59.7777 56.4952 59.7777C57.9288 59.7777 59.2639 58.8675 59.7378 57.4309L71.997 20.2546C72.5879 18.4629 71.6148 16.5312 69.8238 15.9401L55.3772 11.1723C55.0223 11.0552 54.6616 10.9995 54.307 10.9995ZM54.307 11.8184C54.5822 11.8184 54.8561 11.8626 55.1207 11.9499L69.5673 16.7178C70.927 17.1664 71.6682 18.638 71.2197 19.9982L58.9605 57.1745C58.6083 58.2421 57.6178 58.959 56.4952 58.959C56.2199 58.959 55.946 58.9148 55.6814 58.8275L41.2348 54.0597C40.576 53.8424 40.0415 53.3815 39.7294 52.762C39.4173 52.1424 39.365 51.4383 39.5824 50.7795L51.8416 13.603C52.1938 12.5356 53.1844 11.8184 54.307 11.8184Z" fill="#003CE5"/>
<path fill-rule="evenodd" clip-rule="evenodd" d="M64.9353 14.3268L63.6897 13.9157L62.8704 13.6453L62.3308 13.4673L61.5116 13.1969L60.2659 12.7859L56.8572 11.6606C58.0384 12.0506 57.9356 12.8997 57.6925 13.6371C57.1867 15.1709 58.3137 15.5426 59.2543 15.8532L60.5 16.2642L62.6781 16.983L63.9237 17.394C64.8647 17.7046 65.9914 18.0763 66.4971 16.5428C66.7402 15.8054 67.1631 15.062 68.3441 15.4517L64.9353 14.3268Z" fill="#003CE5"/>
<path fill-rule="evenodd" clip-rule="evenodd" d="M65.2995 16.1612C65.2307 16.3705 65.0051 16.4841 64.7959 16.415C64.5869 16.346 64.4731 16.1205 64.5422 15.9112C64.6112 15.7022 64.8368 15.5883 65.0458 15.6574C65.2547 15.7264 65.3685 15.9519 65.2995 16.1612Z" fill="#DCF3FF"/>
<path fill-rule="evenodd" clip-rule="evenodd" d="M63.6599 15.9873L59.2582 14.5346C59.0937 14.4805 59.0045 14.3032 59.0587 14.1386L59.0748 14.0892C59.1291 13.9246 59.3065 13.8351 59.471 13.8894L63.8727 15.3421C64.037 15.3965 64.1264 15.5738 64.0721 15.7381L64.0561 15.7878C64.0015 15.9524 63.8244 16.0416 63.6599 15.9873Z" fill="#DCF3FF"/>
<path fill-rule="evenodd" clip-rule="evenodd" d="M41.2338 53.9609C41.1768 53.9704 39.7667 54.7654 39.7667 54.7654L38.9703 52.7827" fill="#003CE5"/>
<path fill-rule="evenodd" clip-rule="evenodd" d="M49.4738 31.0126L49.4735 31.0139L48.6808 30.7544L48.6368 30.8889C49.2492 31.1111 49.3385 31.4632 49.2962 31.8248L48.4778 35.5637L49.6784 35.9564L53.6838 32.3897L52.4832 31.997L50.0759 34.1407L50.6744 31.4053L49.4738 31.0126Z" fill="#6CD8E3"/>
<path fill-rule="evenodd" clip-rule="evenodd" d="M54.3241 32.5962L55.4893 32.9772L52.6188 36.9197L51.4534 36.5387L54.3241 32.5962Z" fill="#6CD8E3"/>
<path fill-rule="evenodd" clip-rule="evenodd" d="M60.9653 36.0943L60.5075 37.967L59.4569 37.6237L60.9653 36.0943ZM60.7154 34.7847L57.0491 38.3694L58.3133 38.7832L58.8579 38.2308L60.3256 38.7108L60.1602 39.3871L61.3254 39.7684L62.4085 35.3384C61.8443 35.1536 61.2798 34.9692 60.7154 34.7847Z" fill="#6CD8E3"/>
<path fill-rule="evenodd" clip-rule="evenodd" d="M55.4086 34.1928C55.8121 33.5506 56.5421 33.2608 57.5191 33.5806C58.4343 33.88 58.9262 34.6739 58.9262 34.6739L57.9965 35.1731C57.9965 35.1731 57.6137 34.6098 57.3125 34.5113C56.9137 34.3806 56.6859 34.4673 56.5708 34.6947C56.3413 35.1477 57.9452 35.9957 57.5283 37.0895C57.2498 37.8204 56.2461 38.2892 55.3682 38.0021C54.0514 37.5712 53.5729 36.8305 53.5729 36.8305L54.4431 36.1777C54.4431 36.1777 54.8826 36.8493 55.4501 37.0063C55.8334 37.1124 56.1714 37.0628 56.2355 36.8005C56.3806 36.2064 54.6783 35.3549 55.4086 34.1928Z" fill="#6CD8E3"/>
<path fill-rule="evenodd" clip-rule="evenodd" d="M34.9723 66.6402C34.1901 66.6402 33.4058 66.3594 32.7827 65.7906C31.4569 64.5802 31.363 62.5241 32.5729 61.198C40.0435 53.0086 47.4964 49.095 47.8101 48.9324C49.4036 48.1071 51.3645 48.7282 52.1906 50.3229C53.0156 51.9156 52.3949 53.8757 50.8047 54.7026C50.6902 54.7629 43.9957 58.3215 37.3733 65.5808C36.7324 66.2832 35.8537 66.6402 34.9723 66.6402Z" fill="#CDB6FE"/>
<path fill-rule="evenodd" clip-rule="evenodd" d="M35.5447 48.9746C35.5447 48.9746 35.6268 52.2591 38.5619 52.4447C41.4971 52.6303 44.8837 50.7286 44.8837 50.7286L44.1594 58.3935L33.9438 62.6643L29.2933 56.4451L35.5447 48.9746Z" fill="#CDB6FE"/>
<path fill-rule="evenodd" clip-rule="evenodd" d="M35.5436 48.7617C35.6614 48.7611 35.7574 48.8561 35.7581 48.9739L35.7604 49.0389L35.7651 49.1084C35.7739 49.2212 35.7895 49.3474 35.8133 49.4837C35.8815 49.8729 36.0025 50.2617 36.1884 50.6227C36.6196 51.4599 37.3296 52.0222 38.3964 52.1964C38.5127 52.2154 38.5916 52.3251 38.5726 52.4413C38.5536 52.5576 38.4439 52.6365 38.3276 52.6175C37.1205 52.4203 36.2995 51.7701 35.8091 50.8181C35.6018 50.4155 35.4682 49.9862 35.3931 49.5573C35.3734 49.4447 35.3588 49.338 35.3486 49.2386L35.3367 49.098L35.3318 48.9984C35.3316 48.99 35.3315 48.9826 35.3314 48.9762C35.3308 48.8583 35.4258 48.7623 35.5436 48.7617Z" fill="#003CE5"/>
<path fill-rule="evenodd" clip-rule="evenodd" d="M45.5447 58.1719C45.6108 58.2695 45.5852 58.4021 45.4877 58.4681L45.2344 58.6442L45.0113 58.8031L44.8665 58.9077L44.565 59.1285L44.2487 59.3646L43.9186 59.6155C43.8625 59.6585 43.8058 59.7022 43.7487 59.7464C42.442 60.7575 41.1354 61.8701 39.9165 63.0498C38.8792 64.0538 37.9526 65.0625 37.1652 66.0644C37.0924 66.157 36.9583 66.1731 36.8657 66.1003C36.7731 66.0275 36.757 65.8934 36.8298 65.8007C37.63 64.7826 38.5694 63.7599 39.6198 62.7433C40.8509 61.5517 42.1693 60.4292 43.4876 59.409C43.6029 59.3197 43.7162 59.2329 43.8273 59.1484L44.1537 58.9026L44.4658 58.6719L44.8415 58.4L45.1859 58.1577L45.2485 58.1148C45.3461 58.0488 45.4787 58.0743 45.5447 58.1719Z" fill="#003CE5"/>
<path fill-rule="evenodd" clip-rule="evenodd" d="M49.3658 29.1918L63.6069 33.8191C64.1687 34.0016 64.4781 34.5991 64.2979 35.1535L61.3621 44.1889C61.182 44.7434 60.5805 45.0449 60.0187 44.8623L45.7776 40.2351C45.2158 40.0526 44.9064 39.4551 45.0866 38.9007L48.0224 29.8653C48.2025 29.3108 48.804 29.0093 49.3658 29.1918Z" fill="#0063BD"/>
<path fill-rule="evenodd" clip-rule="evenodd" d="M63.6069 33.8188C64.1687 34.0014 64.478 34.5988 64.2979 35.1533L61.3621 44.1887C61.1819 44.7431 60.5805 45.0446 60.0187 44.8621L51.3176 42.0353C53.0631 41.8172 52.3182 39.8056 54.5 38C56.418 36.4119 62 38 61.0294 34.4002L60.9507 34.17C60.8768 33.9705 60.6607 33.4225 60.3461 32.7594L63.6069 33.8188Z" fill="#FF7F10"/>
<path fill-rule="evenodd" clip-rule="evenodd" d="M50.2392 31.695L53.2909 32.6866C53.5718 32.7779 53.7265 33.0766 53.6364 33.3538L53.3102 34.3577C53.2201 34.635 52.9194 34.7857 52.6385 34.6945L49.5868 33.7029C49.3059 33.6116 49.1512 33.3129 49.2413 33.0357L49.5675 32.0318C49.6576 31.7545 49.9583 31.6038 50.2392 31.695Z" fill="white"/>
</svg>
